<?xml version="1.0" standalone="no"?>
<!DOCTYPE svg PUBLIC "-//W3C//DTD SVG 20010904//EN"
 "http://www.w3.org/TR/2001/REC-SVG-20010904/DTD/svg10.dtd">
<svg version="1.0" xmlns="http://www.w3.org/2000/svg"
 width="600.000000pt" height="360.000000pt" viewBox="0 0 600.000000 360.000000"
 preserveAspectRatio="xMidYMid meet">

<g transform="translate(0.000000,360.000000) scale(0.100000,-0.100000)"
fill="#000000" stroke="none">
<path d="M3252 3159 c-194 -18 -398 -103 -552 -227 -273 -220 -426 -596 -381
-935 22 -167 86 -339 172 -464 l31 -45 -83 -84 -83 -84 -26 25 -26 25 -352
-353 -352 -353 0 -44 c0 -40 5 -48 68 -112 66 -65 70 -68 117 -68 l48 0 350
350 351 350 -24 25 -24 26 79 79 79 79 31 -24 c226 -185 511 -275 778 -246
268 28 481 132 663 324 150 158 241 344 278 567 7 41 1 29 -39 -75 -79 -209
-282 -417 -488 -503 -156 -64 -355 -88 -514 -62 -300 48 -560 246 -689 524
-65 141 -79 212 -78 391 0 145 3 169 28 250 54 178 160 340 298 455 91 75 265
163 368 185 41 9 89 20 105 25 29 8 28 8 -10 8 -22 -1 -77 -4 -123 -9z"/>
<path d="M3337 2630 c-92 -23 -167 -83 -208 -166 -33 -68 -34 -188 0 -256 24
-49 93 -124 123 -134 25 -8 22 -24 -4 -24 -31 0 -136 -52 -174 -87 -84 -75
-124 -175 -124 -308 l0 -85 48 -34 c80 -59 291 -151 306 -135 2 2 0 27 -4 54
-12 70 -12 242 0 305 22 116 108 238 208 297 l43 26 -25 26 c-14 14 -37 53
-53 86 -39 85 -39 193 1 282 15 34 39 72 52 84 13 12 24 26 24 30 0 12 -76 38
-127 43 -26 3 -65 1 -86 -4z"/>
<path d="M3723 2626 c-149 -48 -232 -167 -220 -312 7 -98 60 -185 141 -235 21
-13 26 -20 15 -23 -8 -2 -32 -10 -54 -17 -110 -33 -204 -132 -239 -250 -21
-71 -22 -286 -1 -356 l15 -51 66 -7 c166 -18 393 45 553 153 94 64 231 218
231 259 -1 34 -39 103 -87 154 -46 50 -147 109 -185 109 -31 0 -27 16 9 35
121 66 170 262 97 395 -65 120 -219 186 -341 146z"/>
<path d="M2895 2614 c-55 -20 -105 -56 -102 -74 1 -8 -4 -14 -10 -13 -18 4
-60 -66 -74 -122 -6 -25 -9 -71 -6 -100 6 -60 55 -162 76 -157 7 1 10 -1 7 -6
-6 -10 28 -44 62 -61 33 -17 27 -25 -25 -40 -71 -18 -142 -67 -136 -91 3 -11
9 -17 14 -14 5 3 6 -2 3 -10 -7 -17 51 -129 101 -198 25 -34 40 -46 52 -42 15
5 16 4 3 -5 -13 -9 -12 -13 8 -33 l23 -23 -3 72 c-2 39 0 69 5 66 12 -7 8 12
-5 26 -11 10 -10 12 0 9 8 -2 21 16 31 44 10 25 28 60 41 77 18 27 20 34 9 49
-11 14 -11 15 1 5 11 -10 21 -5 54 25 23 20 40 39 39 43 -1 3 4 6 10 6 7 0 25
8 39 17 l27 18 -34 49 c-48 69 -60 112 -60 209 0 70 5 94 25 135 13 28 24 56
23 62 0 7 3 11 7 8 4 -2 17 9 28 25 l22 29 -52 16 c-64 19 -150 18 -203 -1z
m173 -19 c-3 -3 -9 2 -12 12 -6 14 -5 15 5 6 7 -7 10 -15 7 -18z m-151 0 c0
-8 -4 -12 -9 -9 -5 3 -6 10 -3 15 9 13 12 11 12 -6z m143 -425 c0 -5 -2 -10
-4 -10 -3 0 -8 5 -11 10 -3 6 -1 10 4 10 6 0 11 -4 11 -10z m66 -82 c4 -7 4
-10 -1 -6 -4 4 -15 2 -24 -5 -14 -11 -14 -10 -2 6 16 20 18 21 27 5z m-253
-63 c-3 -9 -8 -14 -10 -11 -3 3 -2 9 2 15 9 16 15 13 8 -4z m-56 -2 c-9 -2
-14 -9 -11 -15 4 -7 2 -8 -5 -4 -15 10 -4 26 17 25 15 -1 15 -2 -1 -6z m91
-148 c-3 -3 -9 2 -12 12 -6 14 -5 15 5 6 7 -7 10 -15 7 -18z m-119 -81 c4 3 8
-1 8 -9 0 -11 -4 -12 -14 -4 -7 6 -13 17 -12 23 0 7 2 6 6 -2 2 -6 8 -10 12
-8z m55 -60 c3 -8 2 -12 -4 -9 -6 3 -10 10 -10 16 0 14 7 11 14 -7z"/>
</g>
</svg>
